<?xml version="1.0" encoding="utf-8"?>
<!-- Generator: Adobe Illustrator 16.0.0, SVG Export Plug-In . SVG Version: 6.00 Build 0)  -->
<!DOCTYPE svg PUBLIC "-//W3C//DTD SVG 1.1//EN" "http://www.w3.org/Graphics/SVG/1.1/DTD/svg11.dtd">
<svg version="1.1" id="Layer_1" xmlns="http://www.w3.org/2000/svg" xmlns:xlink="http://www.w3.org/1999/xlink" x="0px" y="0px"
	 width="64px" height="64px" viewBox="407 270 64 64" enable-background="new 407 270 64 64" xml:space="preserve">
<g id="Layer_2">
	<rect x="407" y="270" fill="#254633" width="64" height="64"/>
</g>
<g id="Layer_1_1_">
	<path fill="#FFFFFF" d="M438.571,309.269c0.071,0.124,0.222,0.197,0.368,0.197c0.142,0,0.349-0.099,0.349-0.296
		c0-0.395-0.868-0.147-0.868-0.839c0-0.197,0.17-0.494,0.598-0.494c0.189,0,0.37,0.05,0.516,0.198l-0.203,0.172
		c-0.042-0.099-0.165-0.147-0.312-0.147c-0.281,0-0.348,0.147-0.348,0.271c0,0.444,0.863,0.173,0.863,0.814
		c0,0.346-0.27,0.543-0.615,0.543c-0.224,0-0.452-0.074-0.573-0.247L438.571,309.269z M440.643,307.887h0.25v0.74h0.911v-0.74h0.247
		v1.777h-0.247v-0.814h-0.911v0.814h-0.25V307.887z M443.143,308.775c0-0.519,0.375-0.938,0.913-0.938
		c0.552,0,0.92,0.396,0.92,0.938c0,0.519-0.368,0.938-0.92,0.938C443.518,309.688,443.143,309.294,443.143,308.775z M444.73,308.775
		c0-0.396-0.275-0.691-0.675-0.691c-0.388,0-0.663,0.321-0.663,0.691c0,0.395,0.275,0.716,0.663,0.716
		C444.455,309.466,444.73,309.146,444.73,308.775z M446.085,307.887h1.146v0.222h-0.898v0.519h0.842v0.223h-0.842v0.567h0.94v0.222
		h-1.188V307.887L446.085,307.887z M448.418,307.887h0.35l0.562,1.333l0,0l0.571-1.333h0.335v1.777h-0.243v-1.457l0,0l-0.589,1.457
		h-0.141l-0.601-1.457l0,0v1.457h-0.245V307.887L448.418,307.887z M452.004,307.887h0.213l0.766,1.777h-0.266l-0.177-0.444h-0.832
		l-0.177,0.444h-0.268L452.004,307.887L452.004,307.887z M452.415,308.997l-0.321-0.814l0,0l-0.337,0.814H452.415L452.415,308.997z
		 M453.962,307.887h0.25v0.765h0.007l0.809-0.765h0.33l-0.861,0.814l0.91,0.938h-0.33l-0.822-0.888h-0.035v0.888h-0.246
		L453.962,307.887L453.962,307.887z M456.337,307.887h1.132v0.222h-0.882v0.519h0.823v0.223h-0.823v0.567h0.938v0.222h-1.188
		V307.887L456.337,307.887z M458.598,307.887h0.621c0.444,0,0.566,0.271,0.566,0.493c0,0.223-0.174,0.444-0.441,0.47l0.5,0.814
		h-0.306l-0.444-0.79h-0.257v0.79h-0.247L458.598,307.887L458.598,307.887z M458.844,308.651h0.319c0.208,0,0.375-0.049,0.375-0.271
		c0-0.222-0.194-0.296-0.375-0.296h-0.319V308.651z M460.924,309.269c0.09,0.124,0.232,0.197,0.371,0.197
		c0.167,0,0.361-0.099,0.361-0.296c0-0.395-0.875-0.147-0.875-0.839c0-0.197,0.184-0.494,0.598-0.494
		c0.204,0,0.367,0.05,0.527,0.198l-0.201,0.172c-0.049-0.099-0.174-0.147-0.326-0.147c-0.285,0-0.348,0.147-0.348,0.271
		c0,0.444,0.875,0.173,0.875,0.814c0,0.346-0.285,0.543-0.625,0.543c-0.232,0-0.441-0.074-0.562-0.247L460.924,309.269
		L460.924,309.269z"/>
	<path fill="#FFFFFF" d="M425.386,304.308c-0.429,0-0.774-0.148-1.091-0.469c-0.302-0.321-0.469-0.864-0.469-1.629
		c0-0.567,0.124-1.21,0.393-1.876c0.268-0.666,0.639-1.234,1.167-1.653c0.491-0.42,0.982-0.643,1.476-0.643
		c0.448,0,0.817,0.198,1.094,0.568c0.276,0.37,0.42,0.863,0.42,1.48c0,0.74-0.144,1.456-0.472,2.123
		c-0.295,0.666-0.696,1.185-1.165,1.53C426.295,304.135,425.856,304.308,425.386,304.308z M426.837,298.508
		c-0.542,0-1.038,0.543-1.451,1.604c-0.429,1.086-0.653,2.073-0.653,2.888c0,0.246,0.061,0.444,0.183,0.592
		c0.123,0.148,0.266,0.247,0.491,0.247c0.594,0,1.085-0.593,1.486-1.752c0.397-1.186,0.62-2.099,0.62-2.716
		c0-0.296-0.057-0.543-0.181-0.69C427.232,298.582,427.064,298.508,426.837,298.508z"/>
	<path fill="#FFFFFF" d="M430.382,304.332c-0.399,0-0.717-0.123-0.989-0.37c-0.28-0.246-0.405-0.567-0.405-0.987
		c0-0.246,0.103-0.716,0.306-1.406l1.7-5.652c0.177-0.543,0.207-0.691,0.207-0.74c0-0.074-0.03-0.148-0.082-0.173
		c-0.018-0.025-0.101-0.05-0.413-0.05h-0.323l0.125-0.444h0.038c0.75-0.024,1.29-0.099,1.636-0.246h0.024h0.277l-1.408,4.812
		c0.537-0.691,1.088-1.062,1.601-1.062c0.448,0,0.8,0.173,1.023,0.543c0.222,0.346,0.345,0.74,0.345,1.185
		c0,0.568-0.151,1.234-0.469,1.975c-0.306,0.741-0.8,1.383-1.412,1.876C431.518,304.086,430.92,304.332,430.382,304.332z
		 M432.529,298.557c-0.267,0-0.611,0.223-1.012,0.617c-0.399,0.42-0.768,1.136-1.118,2.147c-0.346,0.987-0.512,1.653-0.512,1.975
		c0,0.197,0.043,0.346,0.125,0.444c0.095,0.099,0.22,0.147,0.387,0.147c0.646,0,1.269-0.567,1.806-1.702
		c0.569-1.136,0.875-2.073,0.875-2.765c0-0.271-0.058-0.469-0.16-0.642C432.83,298.631,432.705,298.557,432.529,298.557z"/>
	<path fill="#FFFFFF" d="M435.95,304.332c-0.249,0-0.452-0.099-0.655-0.246c-0.163-0.173-0.267-0.42-0.267-0.741
		c0-0.271,0.122-0.74,0.349-1.456l0.715-2.147c0.203-0.616,0.245-0.814,0.245-0.888c0-0.074-0.018-0.124-0.042-0.148
		c-0.027-0.05-0.08-0.074-0.125-0.074c-0.152,0-0.375,0.123-0.59,0.395c-0.25,0.271-0.431,0.519-0.53,0.741l-0.022,0.049h-0.514
		l0.042-0.099c0.274-0.519,0.576-0.938,0.925-1.234c0.344-0.296,0.662-0.469,0.979-0.469c0.247,0,0.453,0.074,0.594,0.247
		c0.151,0.173,0.226,0.37,0.226,0.642s-0.101,0.716-0.349,1.382l-0.594,1.827c-0.264,0.814-0.319,1.11-0.319,1.233
		c0,0.124,0.027,0.198,0.074,0.271c0.051,0.05,0.104,0.074,0.176,0.074c0.317,0,0.715-0.395,1.158-1.209l0.03-0.05h0.5l-0.061,0.099
		c-0.224,0.47-0.51,0.889-0.856,1.234C436.643,304.159,436.295,304.332,435.95,304.332z"/>
	<path fill="#FFFFFF" d="M437.179,296.533c-0.196,0-0.37-0.074-0.493-0.223c-0.121-0.147-0.203-0.296-0.203-0.493
		s0.082-0.346,0.203-0.494c0.124-0.123,0.297-0.197,0.493-0.197c0.205,0,0.346,0.074,0.491,0.197
		c0.125,0.124,0.203,0.297,0.203,0.494s-0.078,0.346-0.203,0.493C437.524,296.459,437.384,296.533,437.179,296.533z"/>
	<path fill="#FFFFFF" d="M442.134,304.332c-0.226,0-0.429-0.073-0.594-0.222c-0.183-0.148-0.247-0.346-0.247-0.642
		c0-0.223,0.099-0.642,0.314-1.283l0.773-2.147c0.2-0.568,0.29-0.963,0.29-1.111c0-0.123-0.026-0.222-0.065-0.296
		c-0.06-0.049-0.149-0.099-0.249-0.099c-0.327,0-0.798,0.42-1.338,1.234c-0.566,0.839-1.062,1.925-1.484,3.282l-0.368,1.185h-1.022
		l1.269-4.097c0.264-0.913,0.347-1.185,0.347-1.259s-0.026-0.124-0.026-0.124s-0.027-0.024-0.078-0.024
		c-0.172,0-0.47,0.173-0.918,0.987l-0.024,0.05h-0.488l0.071-0.124c0.624-1.11,1.188-1.629,1.75-1.629
		c0.203,0,0.375,0.074,0.473,0.197c0.099,0.124,0.152,0.321,0.152,0.543c0,0.271-0.071,0.617-0.194,1.062
		c0.717-1.209,1.433-1.826,2.129-1.826c0.264,0,0.51,0.099,0.717,0.271c0.196,0.197,0.321,0.469,0.321,0.814
		c0,0.222-0.1,0.617-0.303,1.209l-0.76,2.246c-0.281,0.814-0.306,0.963-0.306,0.987c0,0.074,0.024,0.124,0.056,0.148
		c0.026,0.024,0.067,0.05,0.151,0.05c0.142,0,0.288-0.074,0.468-0.247c0.165-0.173,0.372-0.444,0.568-0.79l0.025-0.049h0.537
		l-0.062,0.123c-0.308,0.519-0.598,0.913-0.903,1.16C442.769,304.209,442.455,304.332,442.134,304.332z"/>
	<path fill="#FFFFFF" d="M445.67,304.332c-0.5,0-0.896-0.123-1.141-0.345c-0.25-0.223-0.391-0.47-0.391-0.741
		c0-0.147,0.042-0.271,0.123-0.395c0.096-0.123,0.193-0.173,0.346-0.173c0.29,0,0.473,0.173,0.473,0.469
		c0,0.074-0.035,0.148-0.061,0.271c-0.023,0.074-0.023,0.099-0.023,0.099c0,0.074,0.049,0.148,0.174,0.223s0.299,0.123,0.5,0.123
		c0.29,0,0.562-0.099,0.812-0.271c0.25-0.197,0.375-0.444,0.375-0.765c0-0.297-0.181-0.766-0.549-1.407
		c-0.451-0.79-0.639-1.333-0.639-1.703c0-0.469,0.188-0.863,0.562-1.209c0.375-0.321,0.792-0.494,1.264-0.494
		c0.346,0,0.646,0.099,0.922,0.271c0.245,0.173,0.388,0.396,0.388,0.617c0,0.395-0.247,0.444-0.388,0.444
		c-0.204,0-0.326-0.148-0.432-0.469c-0.066-0.271-0.247-0.396-0.535-0.396c-0.246,0-0.471,0.074-0.649,0.198
		c-0.166,0.123-0.267,0.296-0.267,0.518c0,0.297,0.142,0.741,0.472,1.284c0.288,0.518,0.489,0.913,0.592,1.185
		s0.141,0.567,0.141,0.863c0,0.444-0.163,0.889-0.509,1.259C446.857,304.159,446.332,304.332,445.67,304.332z"/>
	<path fill="#FFFFFF" d="M450.293,304.308c-0.422,0-0.766-0.148-1.088-0.469c-0.299-0.321-0.473-0.864-0.473-1.629
		c0-0.567,0.125-1.21,0.406-1.876c0.266-0.666,0.636-1.234,1.154-1.653c0.492-0.42,0.99-0.643,1.488-0.643
		c0.436,0,0.811,0.198,1.076,0.568c0.288,0.37,0.424,0.863,0.424,1.48c0,0.74-0.136,1.456-0.455,2.123
		c-0.3,0.666-0.705,1.185-1.17,1.53C451.217,304.135,450.732,304.308,450.293,304.308z M451.757,298.508
		c-0.54,0-1.038,0.543-1.464,1.604c-0.422,1.086-0.641,2.073-0.641,2.888c0,0.246,0.053,0.444,0.178,0.592
		c0.125,0.148,0.262,0.247,0.496,0.247c0.582,0,1.082-0.593,1.469-1.752c0.41-1.186,0.62-2.099,0.62-2.716
		c0-0.296-0.047-0.543-0.169-0.69C452.121,298.582,451.969,298.508,451.757,298.508L451.757,298.508z"/>
	<path fill="#FFFFFF" d="M457.816,304.332c-0.223,0-0.414-0.073-0.598-0.222c-0.181-0.148-0.25-0.346-0.25-0.642
		c0-0.223,0.111-0.642,0.319-1.283l0.771-2.147c0.209-0.568,0.292-0.963,0.292-1.111c0-0.123-0.007-0.222-0.069-0.296
		c-0.056-0.049-0.139-0.099-0.25-0.099c-0.312,0-0.795,0.42-1.319,1.234c-0.573,0.839-1.066,1.925-1.493,3.282l-0.375,1.185h-1.004
		l1.254-4.097c0.264-0.913,0.348-1.185,0.348-1.259s-0.035-0.124-0.035-0.124s-0.007-0.024-0.062-0.024
		c-0.184,0-0.482,0.173-0.931,0.987l-0.007,0.05h-0.5l0.066-0.124c0.621-1.11,1.188-1.629,1.753-1.629
		c0.205,0,0.375,0.074,0.489,0.197c0.084,0.124,0.133,0.321,0.133,0.543c0,0.271-0.066,0.617-0.191,1.062
		c0.715-1.209,1.438-1.826,2.125-1.826c0.268,0,0.514,0.099,0.723,0.271c0.204,0.197,0.326,0.469,0.326,0.814
		c0,0.222-0.111,0.617-0.299,1.209l-0.764,2.246c-0.292,0.814-0.299,0.963-0.299,0.987c0,0.074,0.007,0.124,0.052,0.148
		c0.011,0.024,0.073,0.05,0.136,0.05c0.149,0,0.309-0.074,0.482-0.247c0.156-0.173,0.365-0.444,0.569-0.79l0.011-0.049h0.559
		l-0.076,0.123c-0.295,0.519-0.607,0.913-0.906,1.16C458.465,304.209,458.143,304.332,457.816,304.332L457.816,304.332z"/>
	<path fill="#FFFFFF" d="M461.913,295.94c-0.083-0.296-0.257-0.519-0.451-0.642c-0.205-0.123-0.413-0.173-0.611-0.123l0,0
		c-0.011,0-0.069,0.024-0.087,0.024l0,0c-0.107,0.024-0.17,0.074-0.246,0.148c-0.122,0.123-0.205,0.296-0.205,0.493
		c0,0.173,0.083,0.346,0.205,0.494c0.125,0.147,0.281,0.222,0.496,0.222c0.198,0,0.33-0.074,0.486-0.197l0.031-0.024
		c0.007,0.024,0.007,0.073,0.062,0.147c0.069,0.173,0.027,0.469-0.094,0.84c-0.156,0.37-0.469,0.69-0.982,0.962l-0.049,0.025
		l0.125,0.345l0.062-0.024c0.625-0.271,1.049-0.666,1.257-1.185C462.076,296.903,462.094,296.409,461.913,295.94L461.913,295.94z"/>
	<path fill="#FFFFFF" d="M462.094,304.332c-0.5,0-0.882-0.123-1.129-0.345c-0.246-0.223-0.406-0.47-0.406-0.741
		c0-0.147,0.042-0.271,0.122-0.395c0.101-0.123,0.208-0.173,0.351-0.173c0.306,0,0.469,0.173,0.469,0.469
		c0,0.074-0.031,0.148-0.038,0.271c-0.042,0.074-0.042,0.099-0.042,0.099c0,0.074,0.049,0.148,0.174,0.223s0.312,0.123,0.5,0.123
		c0.306,0,0.562-0.099,0.812-0.271c0.25-0.197,0.375-0.444,0.375-0.765c0-0.297-0.181-0.766-0.556-1.407
		c-0.444-0.79-0.632-1.333-0.632-1.703c0-0.469,0.188-0.863,0.562-1.209c0.375-0.321,0.806-0.494,1.257-0.494
		c0.368,0,0.663,0.099,0.906,0.271s0.399,0.396,0.399,0.593c0,0.395-0.25,0.444-0.399,0.444c-0.208,0-0.333-0.148-0.417-0.469
		c-0.076-0.271-0.246-0.396-0.559-0.396c-0.25,0-0.455,0.074-0.629,0.197c-0.184,0.124-0.281,0.297-0.281,0.519
		c0,0.296,0.16,0.74,0.473,1.283c0.306,0.519,0.5,0.914,0.59,1.186c0.098,0.271,0.16,0.567,0.16,0.863
		c0,0.444-0.188,0.864-0.524,1.259C463.281,304.159,462.771,304.332,462.094,304.332L462.094,304.332z"/>
	<path fill="#FFFFFF" d="M428.42,306.801c-0.562,0.32-1.031,0.444-1.652,0.37c-0.938-0.123-3.098-1.58-5.068-6.244
		c-0.469-1.111-1.146-1.53-1.963-1.729c1.684-0.049,2.927-0.419,3.688-1.086c0.774-0.69,1.163-1.53,1.163-2.542
		c0-0.543-0.125-1.036-0.368-1.48s-0.613-0.79-1.066-1.062c-0.472-0.271-0.917-0.42-1.358-0.469
		c-0.442-0.05-1.118-0.074-2.001-0.074h-3.213l0,0c-0.625,0-1.165,0.147-1.636,0.493c-0.55,0.42-0.864,0.913-0.989,1.481
		c-0.073,0.37-0.056,0.69,0.09,0.938c0.125,0.247,0.306,0.42,0.552,0.494l0,0c0,0.024,0.019,0.024,0.073,0.049h0.028
		c0.123,0.024,0.222,0.024,0.347-0.024c0.223-0.05,0.389-0.197,0.493-0.37c0.125-0.197,0.143-0.396,0.099-0.617
		c-0.082-0.247-0.203-0.42-0.405-0.519c-0.188-0.123-0.392-0.147-0.616-0.074h-0.019c0-0.049,0-0.099,0.019-0.197
		c0.054-0.222,0.247-0.493,0.616-0.814c0.375-0.296,0.917-0.444,1.618-0.395c0.264,0.024,0.486,0.074,0.611,0.147
		c0.181,0.124,0.271,0.297,0.271,0.519c0,0.173-0.09,0.593-0.271,1.234l-1.979,6.837c-0.17,0.642-0.314,1.086-0.413,1.259
		c-0.107,0.197-0.274,0.37-0.552,0.519c-0.271,0.147-0.562,0.222-0.965,0.222h-0.165l-0.124,0.469h4.969l0.125-0.444h-0.25
		c-0.317,0-0.59-0.074-0.87-0.222c-0.266-0.148-0.387-0.396-0.387-0.74c0-0.124,0.099-0.519,0.264-1.16l0.675-2.222h0.717
		c0.736,0,1.386,0.567,1.636,1.185c3.257,7.676,5.632,7.479,6.402,7.479c0.938,0,1.438-0.32,2.098-0.863L428.42,306.801z
		 M418.281,298.927h-0.368l1.7-6.047c0.181-0.024,0.328-0.024,0.469-0.024c0.943,0,1.641,0.197,2.113,0.593
		c0.469,0.395,0.693,1.012,0.693,1.826c0,1.16-0.405,2.049-1.165,2.69C421.007,298.606,419.837,298.927,418.281,298.927z"/>
</g>
</svg>
